<?xml version="1.0" standalone="no"?>
<!DOCTYPE svg PUBLIC "-//W3C//DTD SVG 20010904//EN"
 "http://www.w3.org/TR/2001/REC-SVG-20010904/DTD/svg10.dtd">
<svg version="1.0" xmlns="http://www.w3.org/2000/svg"
 width="247.000000pt" height="240.000000pt" viewBox="0 0 247.000000 240.000000"
 preserveAspectRatio="xMidYMid meet">

<g transform="translate(0.000000,240.000000) scale(0.100000,-0.100000)"
fill="#000000" stroke="none">
<path d="M501 2374 c-202 -43 -360 -189 -424 -389 -22 -70 -22 -75 -22 -775 0
-656 1 -709 18 -764 65 -210 224 -357 432 -401 104 -22 1347 -22 1450 0 211
45 367 190 432 400 17 56 18 109 18 760 0 638 -2 706 -18 764 -42 154 -154
292 -289 356 -135 64 -141 65 -873 64 -525 0 -673 -3 -724 -15z m1482 -124
c121 -37 231 -140 279 -258 l23 -57 0 -731 0 -730 -37 -75 c-59 -119 -143
-191 -267 -229 -60 -19 -95 -20 -745 -20 -753 0 -749 0 -855 63 -70 42 -133
113 -173 195 l-33 67 0 735 0 735 27 58 c32 68 113 157 185 204 98 62 88 62
844 62 661 1 689 0 752 -19z"/>
<path d="M609 2073 c-57 -35 -54 7 -57 -851 -3 -874 -5 -838 59 -876 45 -27
106 -16 142 24 l27 30 0 253 0 252 143 142 142 142 325 -416 c181 -232 337
-421 352 -429 85 -44 179 27 159 119 -8 34 -105 160 -558 726 l-123 153 285
281 c157 154 293 293 301 308 16 33 18 82 4 110 -24 43 -98 61 -148 35 -15 -8
-216 -209 -447 -445 -231 -237 -423 -431 -427 -431 -5 0 -8 185 -8 411 l0 411
-34 34 c-27 27 -42 34 -72 34 -22 0 -51 -8 -65 -17z"/>
</g>
</svg>
